<svg xmlns="http://www.w3.org/2000/svg" xmlns:xlink="http://www.w3.org/1999/xlink"><defs><symbol viewBox="0 0 306 306" id="arrow-down"><path d="M94.35 0l-35.7 35.7L175.95 153 58.65 270.3l35.7 35.7 153-153z" /></symbol><symbol viewBox="0 0 483.3 483.3" id="envelope"><path d="M424.3 57.75H59.1c-32.6 0-59.1 26.5-59.1 59.1v249.6c0 32.6 26.5 59.1 59.1 59.1h365.1c32.6 0 59.1-26.5 59.1-59.1v-249.5c.1-32.6-26.4-59.2-59-59.2zm32.1 308.7c0 17.7-14.4 32.1-32.1 32.1H59.1c-17.7 0-32.1-14.4-32.1-32.1v-249.5c0-17.7 14.4-32.1 32.1-32.1h365.1c17.7 0 32.1 14.4 32.1 32.1v249.5h.1z" /><path d="M304.8 238.55l118.2-106c5.5-5 6-13.5 1-19.1-5-5.5-13.5-6-19.1-1l-163 146.3-31.8-28.4c-.1-.1-.2-.2-.2-.3-.7-.7-1.4-1.3-2.2-1.9L78.3 112.35c-5.6-5-14.1-4.5-19.1 1.1-5 5.6-4.5 14.1 1.1 19.1l119.6 106.9-119.1 111.5c-5.4 5.1-5.7 13.6-.6 19.1 2.7 2.8 6.3 4.3 9.9 4.3 3.3 0 6.6-1.2 9.2-3.6l120.9-113.1 32.8 29.3c2.6 2.3 5.8 3.4 9 3.4s6.5-1.2 9-3.5l33.7-30.2 120.2 114.2c2.6 2.5 6 3.7 9.3 3.7 3.6 0 7.1-1.4 9.8-4.2 5.1-5.4 4.9-14-.5-19.1l-118.7-112.7z" /></symbol><symbol viewBox="0 0 32 32" id="github"><path d="M27.373 10.725a8.564 8.564 0 00.438-2.726 7.804 7.804 0 00-.828-3.538c-1.157 0-2.18.212-3.066.633-.887.422-1.899 1.077-3.034 1.964a19.234 19.234 0 00-4.543-.52c-1.753 0-3.424.19-5.014.568-1.158-.908-2.18-1.576-3.067-2.004-.887-.427-1.914-.64-3.083-.64a7.802 7.802 0 00-.827 3.537c0 .952.146 1.871.438 2.758-1.471 1.72-2.207 3.862-2.207 6.426 0 2.25.335 4.04 1.006 5.37a6.75 6.75 0 001.395 1.867c.574.54 1.228.979 1.964 1.314.735.335 1.476.614 2.223.835.746.222 1.57.385 2.474.487.903.103 1.701.17 2.393.203.693.032 1.46.049 2.305.049.995 0 1.898-.025 2.71-.073a23.864 23.864 0 002.782-.357c1.044-.19 1.963-.446 2.759-.77a8.786 8.786 0 002.288-1.396 6.544 6.544 0 001.711-2.158c.66-1.342.99-3.132.99-5.371 0-2.575-.736-4.727-2.207-6.458zm-1.947 11.804c-.346.709-.784 1.265-1.314 1.671-.53.406-1.19.73-1.98.974-.79.243-1.546.403-2.271.478-.725.076-1.531.114-2.418.114h-2.726c-.887 0-1.693-.038-2.418-.114a11.926 11.926 0 01-2.272-.478c-.789-.244-1.449-.568-1.979-.974s-.968-.962-1.314-1.671c-.346-.709-.52-1.539-.52-2.49 0-1.3.374-2.403 1.12-3.31.747-.91 1.758-1.364 3.034-1.364.466 0 1.52.114 3.164.34.768.12 1.618.18 2.548.18.93 0 1.78-.06 2.547-.18 1.666-.226 2.72-.34 3.165-.34 1.276 0 2.287.455 3.034 1.363.746.909 1.119 2.012 1.119 3.31 0 .952-.173 1.783-.519 2.49z" /><path d="M12.064 17.475c-.33-.368-.722-.552-1.177-.552-.454 0-.846.184-1.176.552-.33.367-.562.778-.698 1.232a4.65 4.65 0 00-.203 1.331c0 .433.068.876.203 1.331.135.454.368.865.698 1.233.33.368.722.552 1.176.552.455 0 .847-.185 1.177-.552.33-.368.562-.779.697-1.233.136-.455.203-.898.203-1.33 0-.433-.067-.877-.203-1.332a3.197 3.197 0 00-.697-1.232zM22.449 17.475c-.33-.368-.722-.552-1.177-.552-.454 0-.846.184-1.176.552-.33.367-.563.778-.698 1.232a4.646 4.646 0 00-.203 1.331c0 .433.068.876.203 1.331.135.454.368.865.698 1.233.33.368.722.552 1.176.552.455 0 .847-.185 1.177-.552.33-.368.562-.779.697-1.233.135-.455.203-.898.203-1.33a4.66 4.66 0 00-.203-1.332 3.203 3.203 0 00-.697-1.232z" /></symbol><symbol viewBox="0 0 32 32" id="insta"><path d="M6.565 3.571h18.582c1.765 0 3.209 1.307 3.209 3.209v18.583c0 1.902-1.444 3.208-3.209 3.208H6.565c-1.765 0-3.21-1.306-3.21-3.208V6.78c0-1.902 1.445-3.209 3.21-3.209zM21.567 6.35c-.619 0-1.125.506-1.125 1.125v2.694c0 .62.506 1.126 1.125 1.126h2.826c.62 0 1.126-.507 1.126-1.126V7.474c0-.619-.507-1.125-1.126-1.125zm3.964 7.795h-2.2c.207.68.32 1.4.32 2.144 0 4.159-3.48 7.53-7.771 7.53-4.292 0-7.77-3.371-7.77-7.53a7.3 7.3 0 01.32-2.144H6.134v10.56c0 .546.447.994.994.994h17.41a.997.997 0 00.993-.994v-10.56zm-9.651-2.992c-2.773 0-5.021 2.178-5.021 4.865 0 2.687 2.248 4.865 5.02 4.865 2.774 0 5.022-2.178 5.022-4.865 0-2.687-2.248-4.865-5.021-4.865z" /></symbol><symbol viewBox="0 0 37.042 11.906" id="label"><path d="M18.264 0l-2.13 1.437H0v10.47h37.042V1.436h-16.48z" /></symbol><symbol viewBox="0 0 512.092 512.092" id="link"><path d="M312.453 199.601a116.167 116.167 0 00-20.053-16.128 119.472 119.472 0 00-64.427-18.859 118.952 118.952 0 00-84.48 34.987L34.949 308.23a119.466 119.466 0 00-34.91 84.318c-.042 65.98 53.41 119.501 119.39 119.543a118.7 118.7 0 0084.395-34.816l89.6-89.6a8.534 8.534 0 00-6.059-14.592h-3.413a143.626 143.626 0 01-54.613-10.581 8.533 8.533 0 00-9.301 1.877l-64.427 64.512c-20.006 20.006-52.442 20.006-72.448 0-20.006-20.006-20.006-52.442 0-72.448l108.971-108.885c19.99-19.965 52.373-19.965 72.363 0 13.472 12.679 34.486 12.679 47.957 0a34.134 34.134 0 009.899-21.675 34.137 34.137 0 00-9.9-26.282z" /><path d="M477.061 34.993c-46.657-46.657-122.303-46.657-168.96 0l-89.515 89.429a8.533 8.533 0 00-1.792 9.387 8.532 8.532 0 008.021 5.205h3.157a143.357 143.357 0 0154.528 10.667 8.533 8.533 0 009.301-1.877l64.256-64.171c20.006-20.006 52.442-20.006 72.448 0 20.006 20.006 20.006 52.442 0 72.448l-80.043 79.957-.683.768-27.989 27.819c-19.99 19.965-52.373 19.965-72.363 0-13.472-12.679-34.486-12.679-47.957 0a34.139 34.139 0 00-9.899 21.845 34.137 34.137 0 009.899 26.283 118.447 118.447 0 0034.133 23.893c1.792.853 3.584 1.536 5.376 2.304 1.792.768 3.669 1.365 5.461 2.048a67.799 67.799 0 005.461 1.792l5.035 1.365c3.413.853 6.827 1.536 10.325 2.133 4.214.626 8.458 1.025 12.715 1.195H284.461l5.12-.597c1.877-.085 3.84-.512 6.059-.512h2.901l5.888-.853 2.731-.512 4.949-1.024h.939a119.456 119.456 0 0055.381-31.403l108.629-108.629c46.66-46.657 46.66-122.303.003-168.96z" /></symbol><symbol viewBox="0 0 612 612" id="message"><path d="M401.625 325.125h-191.25c-10.557 0-19.125 8.568-19.125 19.125s8.568 19.125 19.125 19.125h191.25c10.557 0 19.125-8.568 19.125-19.125s-8.568-19.125-19.125-19.125zm38.25-114.75h-267.75c-10.557 0-19.125 8.568-19.125 19.125s8.568 19.125 19.125 19.125h267.75c10.557 0 19.125-8.568 19.125-19.125s-8.568-19.125-19.125-19.125zM306 0C137.012 0 0 119.875 0 267.75c0 84.514 44.848 159.751 114.75 208.826V612l134.047-81.339c18.552 3.061 37.638 4.839 57.203 4.839 169.008 0 306-119.875 306-267.75S475.008 0 306 0zm0 497.25c-22.338 0-43.911-2.601-64.643-7.019l-90.041 54.123 1.205-88.701C83.5 414.133 38.25 345.513 38.25 267.75c0-126.741 119.875-229.5 267.75-229.5s267.75 102.759 267.75 229.5S453.875 497.25 306 497.25z" /></symbol><symbol viewBox="0 0 528.899 528.899" id="pencil"><path d="M328.883 89.125l107.59 107.589-272.34 272.34L56.604 361.465l272.279-272.34zm189.23-25.948l-47.981-47.981c-18.543-18.543-48.653-18.543-67.259 0l-45.961 45.961 107.59 107.59 53.611-53.611c14.382-14.383 14.382-37.577 0-51.959zM.3 512.69c-1.958 8.812 5.998 16.708 14.811 14.565l119.891-29.069L27.473 390.597.3 512.69z" /></symbol><symbol viewBox="0 0 95.333 95.332" id="quote"><path d="M30.512 43.939c-2.348-.676-4.696-1.019-6.98-1.019-3.527 0-6.47.806-8.752 1.793 2.2-8.054 7.485-21.951 18.013-23.516a2.501 2.501 0 002.04-1.799l2.301-8.23a2.5 2.5 0 00-2.068-3.15 17.477 17.477 0 00-2.354-.16c-12.637 0-25.152 13.19-30.433 32.076-3.1 11.08-4.009 27.738 3.627 38.223 4.273 5.867 10.507 9 18.529 9.313l.098.002c9.898 0 18.675-6.666 21.345-16.209a22.032 22.032 0 00-2.032-16.851c-2.875-5.105-7.61-8.826-13.334-10.473zM92.471 54.413c-2.875-5.106-7.61-8.827-13.334-10.474-2.348-.676-4.696-1.019-6.979-1.019a21.94 21.94 0 00-8.753 1.793c2.2-8.054 7.485-21.951 18.014-23.516a2.503 2.503 0 002.04-1.799l2.301-8.23a2.5 2.5 0 00-2.068-3.15 17.455 17.455 0 00-2.354-.16c-12.637 0-25.152 13.19-30.434 32.076-3.099 11.08-4.008 27.738 3.629 38.225 4.272 5.866 10.507 9 18.528 9.312l.099.002c9.897 0 18.675-6.666 21.345-16.209a22.045 22.045 0 00-2.034-16.851z" /></symbol><symbol viewBox="0 0 5.292 5.292" id="remove"><path d="M4.143.4L2.646 1.898 1.149.401l-.748.748 1.496 1.497L.401 4.143l.748.748 1.497-1.497 1.497 1.497.748-.748-1.497-1.497 1.497-1.497z" /></symbol><symbol viewBox="-90 0 512 512" id="scroll"><path d="M166.238 430.145l-89.77-94.899 29.06-27.488 60.632 64.097 60.274-64.058 29.132 27.41zM332 392V120C332 53.832 278.168 0 212 0h-92C53.832 0 0 53.832 0 120v272c0 66.168 53.832 120 120 120h92c66.168 0 120-53.832 120-120zM212 40c44.113 0 80 35.887 80 80v272c0 44.113-35.887 80-80 80h-92c-44.113 0-80-35.887-80-80V120c0-44.113 35.887-80 80-80zm-46 41c-11.047 0-20 8.953-20 20s8.953 20 20 20 20-8.953 20-20-8.953-20-20-20zm0 80c-11.047 0-20 8.953-20 20s8.953 20 20 20 20-8.953 20-20-8.953-20-20-20zm0 80c-11.047 0-20 8.953-20 20s8.953 20 20 20 20-8.953 20-20-8.953-20-20-20zm0 0" /></symbol><symbol viewBox="0 0 342.357 342.357" id="tick"><path d="M290.04 33.286L118.861 204.427l-66.541-66.52L0 190.226l118.862 118.845L342.357 85.606z" /></symbol><symbol viewBox="0 0 459 459" id="trash"><path d="M76.5 408c0 28.05 22.95 51 51 51h204c28.05 0 51-22.95 51-51V102h-306v306zM408 25.5h-89.25L293.25 0h-127.5l-25.5 25.5H51v51h357v-51z" /></symbol><symbol viewBox="0 0 482.9 482.9" id="user"><path d="M239.7 260.2h3.2c29.3-.5 53-10.8 70.5-30.5 38.5-43.4 32.1-117.8 31.4-124.9-2.5-53.3-27.7-78.8-48.5-90.7C280.8 5.2 262.7.4 242.5 0H240.8c-11.1 0-32.9 1.8-53.8 13.7-21 11.9-46.6 37.4-49.1 91.1-.7 7.1-7.1 81.5 31.4 124.9 17.4 19.7 41.1 30 70.4 30.5zm-75.1-152.9c0-.3.1-.6.1-.8 3.3-71.7 54.2-79.4 76-79.4H241.9c27 .6 72.9 11.6 76 79.4 0 .3 0 .6.1.8.1.7 7.1 68.7-24.7 104.5-12.6 14.2-29.4 21.2-51.5 21.4h-1c-22-.2-38.9-7.2-51.4-21.4-31.7-35.6-24.9-103.9-24.8-104.5z" /><path d="M446.8 383.6v-.3c0-.8-.1-1.6-.1-2.5-.6-19.8-1.9-66.1-45.3-80.9-.3-.1-.7-.2-1-.3-45.1-11.5-82.6-37.5-83-37.8-6.1-4.3-14.5-2.8-18.8 3.3-4.3 6.1-2.8 14.5 3.3 18.8 1.7 1.2 41.5 28.9 91.3 41.7 23.3 8.3 25.9 33.2 26.6 56 0 .9 0 1.7.1 2.5.1 9-.5 22.9-2.1 30.9-16.2 9.2-79.7 41-176.3 41-96.2 0-160.1-31.9-176.4-41.1-1.6-8-2.3-21.9-2.1-30.9 0-.8.1-1.6.1-2.5.7-22.8 3.3-47.7 26.6-56 49.8-12.8 89.6-40.6 91.3-41.7 6.1-4.3 7.6-12.7 3.3-18.8-4.3-6.1-12.7-7.6-18.8-3.3-.4.3-37.7 26.3-83 37.8-.4.1-.7.2-1 .3-43.4 14.9-44.7 61.2-45.3 80.9 0 .9 0 1.7-.1 2.5v.3c-.1 5.2-.2 31.9 5.1 45.3 1 2.6 2.8 4.8 5.2 6.3 3 2 74.9 47.8 195.2 47.8s192.2-45.9 195.2-47.8c2.3-1.5 4.2-3.7 5.2-6.3 5-13.3 4.9-40 4.8-45.2z" /></symbol><symbol viewBox="0 0 32 32" id="vk"><path d="M31.062 23.236a2.078 2.078 0 00-.103-.198c-.526-.948-1.532-2.111-3.017-3.49l-.031-.032-.016-.015-.016-.016h-.015c-.674-.643-1.1-1.074-1.28-1.296-.326-.42-.4-.847-.221-1.279.126-.326.6-1.016 1.421-2.069.432-.558.774-1.005 1.027-1.342 1.821-2.422 2.611-3.97 2.369-4.643l-.094-.158c-.063-.095-.227-.181-.49-.26-.263-.08-.6-.092-1.01-.04l-4.549.032c-.074-.026-.179-.024-.316.008l-.205.047-.08.04-.062.047a.702.702 0 00-.174.166 1.084 1.084 0 00-.158.276 25.789 25.789 0 01-1.69 3.554c-.39.653-.747 1.218-1.074 1.697-.326.48-.6.832-.82 1.058a5.729 5.729 0 01-.601.545c-.18.137-.316.195-.41.174a11.573 11.573 0 01-.27-.063 1.05 1.05 0 01-.354-.387 1.733 1.733 0 01-.182-.616 6.79 6.79 0 01-.055-.64c-.005-.179-.003-.432.008-.758.01-.326.015-.547.015-.663 0-.4.008-.835.024-1.303.016-.469.029-.84.04-1.113.01-.274.015-.564.015-.87a3.65 3.65 0 00-.055-.718 2.458 2.458 0 00-.166-.505.851.851 0 00-.323-.38 1.825 1.825 0 00-.53-.213c-.557-.126-1.268-.194-2.132-.205-1.958-.02-3.216.106-3.774.38a2.128 2.128 0 00-.6.473c-.19.232-.216.358-.08.379.632.095 1.08.321 1.343.679l.095.19c.074.137.147.379.221.726.074.348.121.732.142 1.153.053.769.053 1.427 0 1.974a23.52 23.52 0 01-.15 1.28 2.561 2.561 0 01-.213.742c-.095.19-.158.305-.19.347a.272.272 0 01-.079.079c-.137.052-.279.08-.426.08-.148 0-.327-.075-.537-.222a3.789 3.789 0 01-.655-.608 8.128 8.128 0 01-.767-1.082 18.878 18.878 0 01-.884-1.642l-.253-.459a39.398 39.398 0 01-.647-1.287 24.818 24.818 0 01-.727-1.634 1.041 1.041 0 00-.378-.506l-.08-.047a1.08 1.08 0 00-.252-.135 1.676 1.676 0 00-.363-.102L1.9 8.397c-.442 0-.742.1-.9.3l-.063.095a.51.51 0 00-.048.253c0 .116.032.258.095.426a52.12 52.12 0 002.061 4.296c.742 1.38 1.387 2.49 1.935 3.332a39.346 39.346 0 001.674 2.385c.568.748.945 1.227 1.129 1.437.184.211.329.369.434.474l.395.379c.253.253.624.555 1.114.908.49.353 1.031.7 1.626 1.043.595.342 1.287.62 2.077.837.79.216 1.558.302 2.306.26h1.816c.369-.031.648-.147.837-.347l.063-.08c.042-.062.082-.16.119-.291.036-.132.055-.277.055-.434-.01-.453.024-.861.102-1.224.079-.363.169-.637.27-.821.1-.185.213-.34.338-.466.127-.126.217-.203.27-.23a1.03 1.03 0 01.125-.055c.253-.084.55-.002.893.245.342.248.663.553.963.917.3.363.661.77 1.082 1.223.421.453.79.79 1.106 1.011l.315.19c.211.126.485.242.822.347.336.105.631.132.884.08l4.043-.064c.4 0 .711-.066.932-.197.221-.132.352-.277.395-.435.042-.158.044-.337.008-.537-.038-.2-.075-.34-.111-.418z" /></symbol></defs></svg>