<?xml version="1.0" encoding="UTF-8" standalone="no"?>
<!-- Generator: Adobe Illustrator 16.0.0, SVG Export Plug-In . SVG Version: 6.00 Build 0)  -->

<svg
   xmlns:dc="http://purl.org/dc/elements/1.1/"
   xmlns:cc="http://creativecommons.org/ns#"
   xmlns:rdf="http://www.w3.org/1999/02/22-rdf-syntax-ns#"
   xmlns:svg="http://www.w3.org/2000/svg"
   xmlns="http://www.w3.org/2000/svg"
   xmlns:sodipodi="http://sodipodi.sourceforge.net/DTD/sodipodi-0.dtd"
   xmlns:inkscape="http://www.inkscape.org/namespaces/inkscape"
   version="1.1"
   id="Capa_1"
   x="0px"
   y="0px"
   width="32"
   height="32"
   viewBox="0 0 32.000001 32.000001"
   xml:space="preserve"
   sodipodi:docname="insta.svg"
   inkscape:version="0.92.4 (5da689c313, 2019-01-14)"><metadata
   id="metadata41"><rdf:RDF><cc:Work
       rdf:about=""><dc:format>image/svg+xml</dc:format><dc:type
         rdf:resource="http://purl.org/dc/dcmitype/StillImage" /><dc:title></dc:title></cc:Work></rdf:RDF></metadata><defs
   id="defs39" /><sodipodi:namedview
   pagecolor="#ffffff"
   bordercolor="#666666"
   borderopacity="1"
   objecttolerance="10"
   gridtolerance="10"
   guidetolerance="10"
   inkscape:pageopacity="0"
   inkscape:pageshadow="2"
   inkscape:window-width="1428"
   inkscape:window-height="825"
   id="namedview37"
   showgrid="false"
   inkscape:zoom="13.70725"
   inkscape:cx="12.881087"
   inkscape:cy="22.272239"
   inkscape:window-x="0"
   inkscape:window-y="0"
   inkscape:window-maximized="0"
   inkscape:current-layer="Capa_1" />
<g
   id="g4"
   transform="matrix(0.25668932,0,0,0.25668669,3.3558882,3.5711607)">
	<path
   d="m 12.501,0 h 72.393 c 6.875,0 12.5,5.09 12.5,12.5 v 72.395 c 0,7.41 -5.625,12.5 -12.5,12.5 H 12.501 C 5.624,97.395 0,92.305 0,84.895 V 12.5 C 0,5.09 5.624,0 12.501,0 Z m 58.447,10.821 c -2.412,0 -4.383,1.972 -4.383,4.385 v 10.495 c 0,2.412 1.971,4.385 4.383,4.385 h 11.008 c 2.412,0 4.385,-1.973 4.385,-4.385 V 15.206 c 0,-2.413 -1.973,-4.385 -4.385,-4.385 z m 15.439,30.367 h -8.572 c 0.811,2.648 1.25,5.453 1.25,8.355 0,16.2 -13.556,29.332 -30.275,29.332 -16.718,0 -30.272,-13.132 -30.272,-29.332 0,-2.904 0.438,-5.708 1.25,-8.355 h -8.945 v 41.141 c 0,2.129 1.742,3.872 3.872,3.872 h 67.822 c 2.13,0 3.872,-1.742 3.872,-3.872 V 41.188 Z M 48.789,29.533 c -10.802,0 -19.56,8.485 -19.56,18.953 0,10.468 8.758,18.953 19.56,18.953 10.803,0 19.562,-8.485 19.562,-18.953 0,-10.468 -8.758,-18.953 -19.562,-18.953 z"
   id="path2"
   inkscape:connector-curvature="0" />
</g>
<g
   id="g6"
   transform="translate(0,-65.394997)">
</g>
<g
   id="g8"
   transform="translate(0,-65.394997)">
</g>
<g
   id="g10"
   transform="translate(0,-65.394997)">
</g>
<g
   id="g12"
   transform="translate(0,-65.394997)">
</g>
<g
   id="g14"
   transform="translate(0,-65.394997)">
</g>
<g
   id="g16"
   transform="translate(0,-65.394997)">
</g>
<g
   id="g18"
   transform="translate(0,-65.394997)">
</g>
<g
   id="g20"
   transform="translate(0,-65.394997)">
</g>
<g
   id="g22"
   transform="translate(0,-65.394997)">
</g>
<g
   id="g24"
   transform="translate(0,-65.394997)">
</g>
<g
   id="g26"
   transform="translate(0,-65.394997)">
</g>
<g
   id="g28"
   transform="translate(0,-65.394997)">
</g>
<g
   id="g30"
   transform="translate(0,-65.394997)">
</g>
<g
   id="g32"
   transform="translate(0,-65.394997)">
</g>
<g
   id="g34"
   transform="translate(0,-65.394997)">
</g>
</svg>