<svg xmlns="http://www.w3.org/2000/svg" viewBox="0 0 512 512" width="512" height="512"><style>tspan { white-space:pre }.shp0 { fill: #000000 } </style><g ><g ><path fill-rule="evenodd" class="shp0" d="M508.02 173.05C508.02 268.47 430.39 346.1 334.97 346.1C313.75 346.1 293.13 342.32 273.55 334.87L233.43 374.99C231.07 377.36 227.86 378.69 224.52 378.69L197.38 378.69L197.38 405.82C197.38 412.79 191.73 418.44 184.77 418.44L172.41 418.44L172.41 430.8C172.41 437.76 166.76 443.41 159.8 443.41L128.96 443.41L128.96 474.28C128.96 477.63 127.63 480.84 125.26 483.21L100.11 508.31C97.75 510.67 94.55 512 91.2 512L16.59 512C9.62 512 3.98 506.35 3.98 499.39L3.98 408.84C3.98 405.5 5.31 402.29 7.67 399.93L173.14 234.45C165.69 214.88 161.92 194.26 161.92 173.05C161.92 77.63 239.56 0 334.97 0C430.39 0 508.02 77.63 508.02 173.05ZM482.8 173.05C482.8 91.54 416.49 25.22 334.98 25.22C253.47 25.22 187.15 91.54 187.15 173.05C187.15 193.69 191.31 213.65 199.53 232.38C201.66 237.23 200.48 242.68 197 246.25C196.97 246.29 196.94 246.32 196.9 246.36L29.2 414.07L29.2 436.85L167.29 298.76C171.73 294.33 178.91 294.33 183.34 298.76C187.78 303.2 187.78 310.38 183.34 314.82L29.2 468.96L29.2 486.78L85.99 486.78L103.74 469.05L103.74 430.79C103.74 423.83 109.39 418.18 116.35 418.18L147.19 418.18L147.19 405.82C147.19 398.86 152.84 393.21 159.8 393.21L172.16 393.21L172.16 366.08C172.16 359.11 177.81 353.47 184.77 353.47L219.3 353.47L261.65 311.11C261.69 311.07 261.73 311.04 261.76 311.01C265.34 307.52 270.79 306.36 275.63 308.48C294.37 316.71 314.33 320.87 334.97 320.87C416.48 320.87 482.8 254.56 482.8 173.05Z" /></g></g><g ><g ><path fill-rule="evenodd" class="shp0" d="M434.88 120.38C434.88 146.43 413.69 167.62 387.64 167.62C361.59 167.62 340.4 146.43 340.4 120.38C340.4 94.33 361.59 73.14 387.64 73.14C413.69 73.14 434.88 94.33 434.88 120.38ZM409.65 120.38C409.65 108.24 399.78 98.37 387.64 98.37C375.5 98.37 365.62 108.24 365.62 120.38C365.62 132.52 375.5 142.4 387.64 142.4C399.78 142.4 409.65 132.52 409.65 120.38Z" /></g></g><g ></g><g ></g><g ></g><g ></g><g ></g><g ></g><g ></g><g ></g><g ></g><g ></g><g ></g><g ></g><g ></g><g ></g><g ></g></svg>