<?xml version="1.0" encoding="UTF-8" standalone="no"?>
<svg
   xmlns:dc="http://purl.org/dc/elements/1.1/"
   xmlns:cc="http://creativecommons.org/ns#"
   xmlns:rdf="http://www.w3.org/1999/02/22-rdf-syntax-ns#"
   xmlns:svg="http://www.w3.org/2000/svg"
   xmlns="http://www.w3.org/2000/svg"
   id="svg43"
   version="1.1"
   height="350"
   width="350"
   viewBox="0 0 350 350">
  <metadata
     id="metadata49">
    <rdf:RDF>
      <cc:Work
         rdf:about="">
        <dc:format>image/svg+xml</dc:format>
        <dc:type
           rdf:resource="http://purl.org/dc/dcmitype/StillImage" />
        <dc:title></dc:title>
      </cc:Work>
    </rdf:RDF>
  </metadata>
  <defs
     id="defs47" />
  <style
     id="style2">
		tspan { white-space:pre }
		.shp0 { fill: #000000 } 
	</style>
  <g
     id="g11">
    <path
       d="M175 171.17C213.91 171.17 245.46 132.86 245.46 85.59C245.46 38.32 235.1 0 175 0C114.9 0 104.53 38.32 104.53 85.59C104.53 132.85 136.08 171.17 175 171.17Z"
       class="shp0"
       id="Layer" />
    <path
       d="M41.91 301.85C41.9 298.97 41.88 301.04 41.91 301.85L41.91 301.85Z"
       class="shp0"
       id="path5" />
    <path
       d="M308.08 304.1C308.12 303.31 308.1 298.63 308.08 304.1L308.08 304.1Z"
       class="shp0"
       id="path7" />
    <path
       d="M307.94 298.4C306.63 216.06 295.88 192.59 213.58 177.74C213.58 177.74 202 192.5 175 192.5C148 192.5 136.41 177.74 136.41 177.74C55.02 192.43 43.61 215.55 42.11 295.72C41.99 302.27 41.93 302.61 41.91 301.85C41.91 303.28 41.92 305.91 41.92 310.5C41.92 310.5 61.51 350 175 350C288.49 350 308.08 310.5 308.08 310.5C308.08 307.55 308.08 305.5 308.08 304.1C308.06 304.57 308.02 303.66 307.94 298.4Z"
       class="shp0"
       id="path9" />
  </g>
  <g
     id="g13" />
  <g
     id="g15" />
  <g
     id="g17" />
  <g
     id="g19" />
  <g
     id="g21" />
  <g
     id="g23" />
  <g
     id="g25" />
  <g
     id="g27" />
  <g
     id="g29" />
  <g
     id="g31" />
  <g
     id="g33" />
  <g
     id="g35" />
  <g
     id="g37" />
  <g
     id="g39" />
  <g
     id="g41" />
</svg>
